<svg width="24" height="24" viewBox="0 0 24 24" fill="none" xmlns="http://www.w3.org/2000/svg">
<g id="chevron_left">
<path id="Vector" d="M10.2681 11.9749L14.6089 16.3157C14.7705 16.4773 14.8471 16.6658 14.8388 16.8812C14.8305 17.0966 14.7455 17.2893 14.5839 17.4592C14.4223 17.6291 14.2276 17.7141 13.9997 17.7141C13.7718 17.7141 13.577 17.6291 13.4154 17.4592L8.50892 12.5527C8.41761 12.4697 8.3513 12.3806 8.31 12.2855C8.2687 12.1904 8.24805 12.0869 8.24805 11.9749C8.24805 11.863 8.2687 11.7595 8.31 11.6643C8.3513 11.5692 8.41761 11.476 8.50892 11.3847L13.4404 6.45319C13.602 6.29161 13.7968 6.21082 14.0247 6.21082C14.2526 6.21082 14.4473 6.29577 14.6089 6.46569C14.7705 6.63562 14.8513 6.83246 14.8513 7.05619C14.8513 7.27992 14.7705 7.47259 14.6089 7.63419L10.2681 11.9749Z" fill="#472200"/>
</g>
</svg>
