<svg viewBox="0 0 8 6" fill="white" xmlns="http://www.w3.org/2000/svg">
<path d="M3.99647 0.911163C4.07221 0.911163 4.14179 0.924929 4.2052 0.952463C4.2686 0.979996 4.32796 1.0242 4.38329 1.08508L7.65712 4.35891C7.76852 4.46476 7.82422 4.59087 7.82422 4.73725C7.82422 4.88362 7.76758 5.01346 7.6543 5.12675C7.54657 5.23447 7.41674 5.28833 7.2648 5.28833C7.11287 5.28833 6.98081 5.23502 6.86862 5.1284L3.99814 2.24956L1.11932 5.1284C1.01269 5.23502 0.88618 5.28833 0.739802 5.28833C0.593425 5.28833 0.463592 5.23447 0.350303 5.12675C0.24258 5.01346 0.188719 4.88085 0.188719 4.72891C0.188719 4.57698 0.241642 4.44809 0.347486 4.34225L3.60465 1.08508C3.66553 1.0242 3.72711 0.979996 3.7894 0.952463C3.8517 0.924929 3.92072 0.911163 3.99647 0.911163Z"/>
</svg>
