<svg width="24" height="24" viewBox="0 0 24 24" fill="none" xmlns="http://www.w3.org/2000/svg">
<g id="close">
<path id="Vector" d="M11.9994 13.156L6.84618 18.3093C6.67625 18.4792 6.4815 18.5642 6.26193 18.5642C6.04236 18.5642 5.85178 18.4792 5.69018 18.3093C5.52026 18.1394 5.43739 17.9467 5.44156 17.7313C5.44572 17.5159 5.5286 17.3274 5.69018 17.1658L10.8435 12L5.69018 6.83429C5.5286 6.67269 5.44781 6.48419 5.44781 6.26879C5.44781 6.05339 5.5286 5.86072 5.69018 5.69079C5.85178 5.52087 6.04236 5.43591 6.26193 5.43591C6.4815 5.43591 6.67625 5.5167 6.84618 5.67829L11.9994 10.8441L17.1652 5.67829C17.3268 5.5167 17.5174 5.43591 17.7369 5.43591C17.9565 5.43591 18.1512 5.52087 18.3212 5.69079C18.4828 5.86072 18.5615 6.05339 18.5573 6.26879C18.5531 6.48419 18.4703 6.67269 18.3087 6.83429L13.1554 12L18.3087 17.1658C18.4703 17.3274 18.5511 17.5159 18.5511 17.7313C18.5511 17.9467 18.4703 18.1394 18.3087 18.3093C18.1471 18.4792 17.9565 18.5642 17.7369 18.5642C17.5174 18.5642 17.3268 18.4792 17.1652 18.3093L11.9994 13.156Z" fill="#472200"/>
</g>
</svg>
