<svg width="20" height="20" viewBox="0 0 20 20" fill="none" xmlns="http://www.w3.org/2000/svg">
<g id="language">
<path id="Vector" d="M9.99521 18.3537C8.82914 18.3537 7.73656 18.1366 6.71746 17.7023C5.69838 17.2681 4.81293 16.6725 4.06111 15.9155C3.3093 15.1586 2.71891 14.2688 2.28994 13.2463C1.86097 12.2237 1.64648 11.1294 1.64648 9.96332C1.64648 8.79061 1.86097 7.69824 2.28994 6.68621C2.71891 5.67419 3.3093 4.79427 4.06111 4.04646C4.81293 3.29866 5.69838 2.71085 6.71746 2.28303C7.73656 1.85521 8.82914 1.6413 9.99521 1.6413C11.1679 1.6413 12.2629 1.85526 13.2802 2.28319C14.2976 2.71111 15.1827 3.29906 15.9356 4.04705C16.6886 4.79503 17.2807 5.67516 17.712 6.68742C18.1433 7.69969 18.3589 8.78999 18.3589 9.95834C18.3589 11.1277 18.1433 12.2237 17.712 13.2463C17.2807 14.2688 16.6886 15.1586 15.9356 15.9155C15.1827 16.6725 14.2976 17.2681 13.2802 17.7023C12.2629 18.1366 11.1679 18.3537 9.99521 18.3537ZM9.99521 17.0643C10.4798 16.5636 10.8841 15.9895 11.2081 15.3421C11.532 14.6946 11.8033 13.923 12.0219 13.0272H8.00971C8.19388 13.8674 8.45142 14.6217 8.78234 15.29C9.11326 15.9583 9.51755 16.5497 9.99521 17.0643ZM8.30182 16.8039C7.94433 16.2758 7.64135 15.7045 7.39286 15.0899C7.14437 14.4753 6.93616 13.7877 6.76821 13.0272H3.65463C4.16882 14.0169 4.77496 14.7914 5.47303 15.3505C6.1711 15.9097 7.11403 16.3942 8.30182 16.8039ZM11.7094 16.7831C12.7167 16.4669 13.6197 15.9885 14.4184 15.3478C15.2172 14.7071 15.8615 13.9336 16.3512 13.0272H13.2634C13.0816 13.7739 12.8665 14.4545 12.6182 15.0691C12.3698 15.6837 12.0669 16.255 11.7094 16.7831ZM3.27419 11.8442H6.54096C6.4993 11.4623 6.47499 11.1228 6.46805 10.8259C6.4611 10.5289 6.45763 10.2397 6.45763 9.95834C6.45763 9.61806 6.46457 9.31417 6.47846 9.04665C6.49235 8.77914 6.52013 8.47524 6.5618 8.13496H3.27419C3.17003 8.47524 3.10058 8.77454 3.06586 9.03286C3.03114 9.29117 3.01378 9.59966 3.01378 9.95834C3.01378 10.3137 3.03114 10.6318 3.06586 10.9126C3.10058 11.1934 3.17003 11.5039 3.27419 11.8442ZM7.79096 11.8442H12.2407C12.2929 11.4067 12.3251 11.0545 12.3374 10.7876C12.3496 10.5207 12.3557 10.2443 12.3557 9.95834C12.3557 9.68299 12.3496 9.41964 12.3374 9.16828C12.3251 8.9169 12.2929 8.57246 12.2407 8.13496H7.79096C7.72846 8.57246 7.69027 8.9169 7.67638 9.16828C7.66249 9.41964 7.65555 9.68299 7.65555 9.95834C7.65555 10.2443 7.66249 10.5207 7.67638 10.7876C7.69027 11.0545 7.72846 11.4067 7.79096 11.8442ZM13.4386 11.8442H16.7316C16.8255 11.5039 16.8907 11.1934 16.927 10.9126C16.9634 10.6318 16.9816 10.3137 16.9816 9.95834C16.9816 9.59966 16.9634 9.29117 16.927 9.03286C16.8907 8.77454 16.8255 8.47524 16.7316 8.13496H13.4594C13.4944 8.63134 13.5189 9.00551 13.5328 9.25748C13.5467 9.50944 13.5536 9.74306 13.5536 9.95834C13.5536 10.2536 13.5432 10.5359 13.5224 10.805C13.5015 11.0742 13.4736 11.4206 13.4386 11.8442ZM13.2426 6.94703H16.3512C15.8892 5.98839 15.2589 5.19045 14.4601 4.55321C13.6613 3.91599 12.7375 3.46362 11.6886 3.19611C12.0461 3.71362 12.349 4.27189 12.5973 4.87092C12.8457 5.46996 13.0608 6.162 13.2426 6.94703ZM8.00971 6.94703H12.0428C11.8933 6.21061 11.6367 5.49445 11.2728 4.79855C10.909 4.10263 10.4831 3.49557 9.99521 2.97736C9.55921 3.35305 9.18617 3.84727 8.87609 4.46001C8.56601 5.07273 8.27721 5.90173 8.00971 6.94703ZM3.65463 6.94703H6.78905C6.9431 6.20366 7.13916 5.53767 7.37723 4.94905C7.6153 4.36044 7.91655 3.78307 8.28098 3.21694C7.22875 3.48446 6.31276 3.92732 5.53303 4.54553C4.75329 5.16373 4.12716 5.96423 3.65463 6.94703Z" fill="white"/>
</g>
</svg>
