<svg width="197" height="24" viewBox="0 0 197 24" fill="none" xmlns="http://www.w3.org/2000/svg">
<g clip-path="url(#clip0_606_14731)">
<path d="M41.3867 0.396973C43.3626 0.396973 44.9643 1.99864 44.9643 3.97458V14.2241C44.9643 15.6003 44.7492 16.8999 44.3174 18.1229C43.8857 19.3459 43.1431 20.5011 42.1853 21.4279C41.3101 22.2737 40.395 22.8734 39.4388 23.2256C38.0463 23.7427 36.3725 24.0006 34.4201 24.0006C33.2914 24.0006 32.0581 23.921 30.7232 23.7634C29.3882 23.6042 28.2713 23.2919 27.3754 22.8218C26.4781 22.3533 25.6573 21.6858 24.9132 20.8208C24.1691 19.9559 23.6593 19.0645 23.3852 18.1465C22.9417 16.6701 22.7207 15.3616 22.7207 14.2226V3.97458C22.7207 1.99864 24.3224 0.396973 26.2983 0.396973C28.2742 0.396973 29.8759 1.99864 29.8759 3.97458V14.5541C29.8759 15.8199 30.2266 16.8086 30.9294 17.5203C31.6308 18.2319 32.6048 18.5885 33.8499 18.5885C35.095 18.5885 36.0527 18.2378 36.7556 17.5365C37.4569 16.8351 37.8076 15.842 37.8076 14.5541V3.97458C37.8076 1.99864 39.4093 0.396973 41.3852 0.396973H41.3867Z" fill="#FBB501"/>
<path d="M48.4312 3.97287C48.4312 1.99693 50.0328 0.395264 52.0088 0.395264H61.856C65.1389 0.395264 67.302 1.58731 68.3467 3.97287C68.6517 4.66835 68.8049 5.41687 68.8049 6.17572C68.8049 7.54752 68.3776 8.72336 67.523 9.70469C66.9528 10.3589 66.1188 10.8761 65.021 11.2563C66.689 11.6571 67.9149 12.3466 68.7018 13.3221C69.4886 14.299 69.8806 15.5249 69.8806 17.0028C69.8806 18.2067 69.6006 19.2882 69.0421 20.2489C68.4822 21.2096 67.7175 21.9699 66.7465 22.5284C66.1453 22.8761 65.2376 23.1295 64.0235 23.2887C62.4086 23.4994 61.3373 23.6055 60.8098 23.6055H52.0073C50.0314 23.6055 48.4297 22.0038 48.4297 20.0279V3.97287H48.4312ZM55.6659 9.49841H58.7853C59.9036 9.49841 60.6831 9.30538 61.1207 8.9208C61.5584 8.53623 61.7779 7.97925 61.7779 7.24988C61.7779 6.57503 61.5584 6.04605 61.1207 5.66737C60.6831 5.28721 59.9199 5.09713 58.8324 5.09713H55.6659V9.49841ZM55.6659 18.6178H59.3231C60.5579 18.6178 61.4287 18.3982 61.9356 17.9606C62.4424 17.523 62.6959 16.9336 62.6959 16.1954C62.6959 15.5087 62.4454 14.9576 61.9444 14.5406C61.4434 14.1237 60.5638 13.9159 59.3084 13.9159H55.6674V18.6178H55.6659Z" fill="#FBB501"/>
<path d="M72.356 3.97458C72.356 1.99864 73.9576 0.396973 75.9336 0.396973H85.7808C89.0637 0.396973 91.2268 1.58902 92.2715 3.97458C92.5765 4.67006 92.7297 5.41858 92.7297 6.17742C92.7297 7.54923 92.3024 8.72507 91.4478 9.7064C90.8776 10.3606 90.0436 10.8778 88.9458 11.258C90.6138 11.6588 91.8397 12.3483 92.6266 13.3238C93.4134 14.3007 93.8054 15.5266 93.8054 17.0045C93.8054 18.2084 93.5254 19.2899 92.9669 20.2506C92.407 21.2113 91.6423 21.9716 90.6713 22.5301C90.0701 22.8778 89.1624 23.1313 87.9483 23.2904C86.3334 23.5011 85.2621 23.6072 84.7346 23.6072H75.9321C73.9562 23.6072 72.3545 22.0055 72.3545 20.0296V3.97458H72.356ZM79.5907 9.50012H82.7101C83.8285 9.50012 84.6079 9.30709 85.0455 8.92251C85.4832 8.53794 85.7027 7.98096 85.7027 7.25159C85.7027 6.57674 85.4832 6.04776 85.0455 5.66908C84.6079 5.28892 83.8447 5.09884 82.7572 5.09884H79.5907V9.50012ZM79.5907 18.6195H83.2479C84.4827 18.6195 85.3535 18.3999 85.8604 17.9623C86.3673 17.5247 86.6207 16.9353 86.6207 16.1971C86.6207 15.5104 86.3702 14.9594 85.8692 14.5424C85.3682 14.1254 84.4886 13.9176 83.2332 13.9176H79.5922V18.6195H79.5907Z" fill="#FBB501"/>
<path d="M95.3584 12.0162C95.3584 8.2279 96.4134 5.278 98.5249 3.1665C100.635 1.05501 103.575 0 107.344 0C111.113 0 114.182 1.03733 116.273 3.11051C118.362 5.18369 119.407 8.08939 119.407 11.8261C119.407 14.5388 118.95 16.7638 118.038 18.4995C117.125 20.2353 115.806 21.5864 114.08 22.553C112.355 23.5182 110.204 24.0015 107.63 24.0015C105.055 24.0015 102.845 23.5845 101.131 22.7505C99.4164 21.9165 98.0254 20.5977 96.9601 18.7927C95.8933 16.9877 95.3613 14.7289 95.3613 12.0162H95.3584ZM102.53 12.0472C102.53 14.39 102.966 16.0742 103.835 17.0968C104.706 18.1208 105.891 18.6321 107.389 18.6321C108.888 18.6321 110.123 18.1311 110.967 17.1277C111.811 16.1257 112.234 14.3251 112.234 11.7289C112.234 9.54371 111.794 7.94794 110.912 6.94008C110.031 5.93222 108.836 5.42829 107.326 5.42829C105.816 5.42829 104.719 5.93959 103.843 6.96365C102.966 7.98772 102.528 9.68222 102.528 12.0457L102.53 12.0472Z" fill="#FBB501"/>
<path d="M15.3846 0.396973C13.248 0.396973 11.5167 2.12831 11.5167 4.26485V8.13273H7.73575V4.26485C7.73575 2.12831 6.00294 0.396973 3.86787 0.396973C1.73281 0.396973 0 2.12831 0 4.26485V19.7378C0 21.8744 1.73281 23.6057 3.86787 23.6057C6.00294 23.6057 7.73575 21.8744 7.73575 19.7378V15.87H11.5167V19.7378C11.5167 21.8744 13.2495 23.6057 15.3846 23.6057C17.5196 23.6057 19.2524 21.8744 19.2524 19.7378V4.26485C19.2524 2.12831 17.5196 0.396973 15.3846 0.396973Z" fill="#FBB501"/>
<path d="M3.86787 8.13273H7.73575V4.26485C7.73575 2.12831 6.00294 0.396973 3.86787 0.396973C3.50835 0.396973 3.16208 0.450018 2.83202 0.541373C2.79371 0.551688 2.7554 0.559055 2.71856 0.570843C2.48575 0.643043 2.26179 0.738819 2.04961 0.852277C2.04224 0.856698 2.0334 0.859645 2.02456 0.864065C1.80648 0.983417 1.60019 1.12192 1.41012 1.27811C1.41012 1.27811 1.40864 1.27811 1.40717 1.27959C1.34086 1.3341 1.2775 1.39452 1.21562 1.45493C1.1891 1.47998 1.15963 1.50355 1.1331 1.53008C1.10658 1.5566 1.083 1.58607 1.05796 1.61259C0.999017 1.67595 0.938604 1.73784 0.882612 1.80414C0.882612 1.80414 0.882612 1.80562 0.881139 1.80709C0.72495 1.99717 0.58497 2.20346 0.467092 2.42153C0.353634 2.62929 0.260805 2.85031 0.187131 3.08017C0.182711 3.09196 0.178291 3.10375 0.17387 3.11554C0.162082 3.15238 0.154715 3.19216 0.144401 3.229C0.0530451 3.55906 0 3.90532 0 4.26485C0 6.40139 1.73133 8.13273 3.86787 8.13273Z" fill="#D68000"/>
<path d="M15.3845 15.8677H11.5166V19.7356C11.5166 21.8721 13.2494 23.6034 15.3845 23.6034C15.744 23.6034 16.0903 23.5504 16.4203 23.459C16.4586 23.4487 16.4969 23.4413 16.5338 23.4296C16.7666 23.3574 16.9906 23.2616 17.2027 23.1481C17.2101 23.1437 17.219 23.1408 17.2278 23.1363C17.4459 23.017 17.6522 22.8785 17.8422 22.7223C17.8422 22.7223 17.8437 22.7223 17.8452 22.7208C17.9115 22.6663 17.9748 22.6059 18.0367 22.5455C18.0633 22.5204 18.0927 22.4969 18.1192 22.4703C18.1458 22.4438 18.1693 22.4143 18.1944 22.3878C18.2533 22.3245 18.3137 22.2626 18.3697 22.1963C18.3697 22.1963 18.3697 22.1948 18.3712 22.1933C18.5274 22.0032 18.6674 21.7969 18.7853 21.5789C18.8987 21.3711 18.9915 21.1501 19.0652 20.9202C19.0696 20.9084 19.0741 20.8967 19.0785 20.8849C19.0903 20.848 19.0976 20.8082 19.1079 20.7714C19.1993 20.4413 19.2524 20.0951 19.2524 19.7356C19.2524 17.599 17.521 15.8677 15.3845 15.8677Z" fill="#D68000"/>
<path d="M132.127 23.9345C130.986 23.9345 130.11 23.6221 129.495 22.9973C128.881 22.3726 128.574 21.49 128.574 20.3495V3.9983C128.574 2.83573 128.887 1.94722 129.511 1.33425C130.136 0.719813 131.019 0.41333 132.159 0.41333H140.35C143.026 0.41333 145.093 1.11028 146.552 2.50272C148.011 3.89516 148.74 5.79889 148.74 8.21097C148.74 10.6231 148.011 12.5268 146.552 13.9192C145.093 15.3117 143.026 16.0086 140.35 16.0086H135.645V20.351C135.645 21.4914 135.349 22.374 134.757 22.9988C134.165 23.6235 133.288 23.9359 132.125 23.9359L132.127 23.9345ZM135.647 10.6113H139.036C140.001 10.6113 140.741 10.4138 141.256 10.0189C141.772 9.62404 142.03 9.02139 142.03 8.2095C142.03 7.39761 141.772 6.76696 141.256 6.38386C140.741 6.00076 140 5.80773 139.036 5.80773H135.647V10.6113Z" fill="#FBB501"/>
<path d="M162.984 24.0004C160.594 24.0004 158.483 23.4965 156.653 22.4871C154.821 21.4778 153.395 20.0691 152.375 18.2597C151.356 16.4503 150.846 14.3609 150.846 11.993C150.846 9.62514 151.356 7.50775 152.375 5.71011C153.395 3.91247 154.82 2.51414 156.653 1.51512C158.483 0.517575 160.594 0.0180664 162.984 0.0180664C165.374 0.0180664 167.512 0.517575 169.333 1.51512C171.153 2.51266 172.574 3.91099 173.593 5.71011C174.613 7.50923 175.123 9.60304 175.123 11.993C175.123 14.383 174.613 16.4783 173.593 18.2759C172.574 20.075 171.153 21.4778 169.333 22.4871C167.512 23.4965 165.396 24.0004 162.984 24.0004ZM162.984 18.1124C164.475 18.1124 165.65 17.5701 166.504 16.4842C167.36 15.3982 167.788 13.9012 167.788 11.9945C167.788 10.0878 167.36 8.59518 166.504 7.52101C165.65 6.44685 164.475 5.90903 162.984 5.90903C161.493 5.90903 160.32 6.44096 159.464 7.50481C158.608 8.56866 158.181 10.0657 158.181 11.996C158.181 13.9262 158.609 15.4292 159.464 16.5033C160.319 17.5775 161.492 18.1153 162.984 18.1153V18.1124Z" fill="#FBB501"/>
<path d="M186.601 23.9989C185.767 23.9989 184.879 23.9385 183.937 23.8177C182.994 23.6968 182.09 23.5333 181.223 23.3241C180.357 23.1163 179.583 22.8805 178.904 22.6168C178.203 22.3324 177.709 21.9213 177.425 21.3835C177.139 20.8457 177.03 20.271 177.096 19.6566C177.162 19.0436 177.37 18.494 177.721 18.0122C178.071 17.5303 178.543 17.1959 179.135 17.0087C179.728 16.8231 180.397 16.8835 181.142 17.19C181.91 17.4979 182.815 17.7499 183.856 17.9473C184.898 18.1448 185.813 18.2435 186.603 18.2435C187.874 18.2435 188.741 18.1006 189.202 17.8162C189.663 17.5318 189.893 17.2018 189.893 16.829C189.893 16.4783 189.734 16.188 189.416 15.9567C189.097 15.7268 188.511 15.5235 187.656 15.3481L183.707 14.4935C179.518 13.5947 177.425 11.3683 177.425 7.81571C177.425 6.23614 177.852 4.86581 178.708 3.70323C179.563 2.54066 180.758 1.63594 182.293 0.989088C183.828 0.342231 185.616 0.0180664 187.656 0.0180664C188.686 0.0180664 189.783 0.128577 190.947 0.346652C192.109 0.5662 193.107 0.884471 193.941 1.30147C194.533 1.58732 194.966 1.99253 195.24 2.51856C195.514 3.04459 195.629 3.59272 195.585 4.16296C195.541 4.73319 195.36 5.24302 195.043 5.69243C194.725 6.14184 194.281 6.4498 193.711 6.61335C193.141 6.77838 192.45 6.71797 191.638 6.43211C191.09 6.23467 190.431 6.07553 189.663 5.95471C188.896 5.83388 188.194 5.77347 187.558 5.77347C186.482 5.77347 185.676 5.92671 185.14 6.23467C184.602 6.54262 184.334 6.94783 184.334 7.45176C184.334 7.73762 184.487 7.994 184.793 8.22534C185.1 8.4552 185.692 8.65854 186.569 8.83388L190.518 9.6885C194.705 10.6094 196.801 12.7916 196.801 16.2352C196.801 17.7926 196.378 19.1585 195.535 20.3314C194.691 21.5043 193.506 22.409 191.982 23.0456C190.457 23.6821 188.666 24.0004 186.604 24.0004L186.601 23.9989Z" fill="#FBB501"/>
</g>
<defs>
<clipPath id="clip0_606_14731">
<rect width="196.796" height="24" fill="white"/>
</clipPath>
</defs>
</svg>
