<svg width="148" height="18" viewBox="0 0 148 18" fill="none" xmlns="http://www.w3.org/2000/svg">
<g id="HUBBO POS_Logo_Yellow_Horizontal_RGB 1" clip-path="url(#clip0_848_1219)">
<g id="Group">
<g id="Group_2">
<path id="Vector" d="M31.1276 0.297241C32.6136 0.297241 33.8181 1.49849 33.8181 2.98044V10.6676C33.8181 11.6997 33.6563 12.6745 33.3316 13.5917C33.0069 14.5089 32.4484 15.3753 31.7282 16.0704C31.0699 16.7048 30.3818 17.1546 29.6626 17.4187C28.6154 17.8066 27.3566 18 25.8884 18C25.0395 18 24.112 17.9403 23.1081 17.822C22.1041 17.7027 21.2641 17.4684 20.5904 17.1159C19.9156 16.7645 19.2983 16.2638 18.7387 15.6151C18.1791 14.9664 17.7957 14.2979 17.5896 13.6094C17.2561 12.5021 17.0898 11.5207 17.0898 10.6665V2.98044C17.0898 1.49849 18.2944 0.297241 19.7804 0.297241C21.2664 0.297241 22.4709 1.49849 22.4709 2.98044V10.9151C22.4709 11.8644 22.7346 12.6059 23.2632 13.1397C23.7907 13.6735 24.5231 13.9409 25.4595 13.9409C26.3959 13.9409 27.1162 13.6779 27.6447 13.1519C28.1722 12.6258 28.4359 11.881 28.4359 10.9151V2.98044C28.4359 1.49849 29.6405 0.297241 31.1265 0.297241H31.1276Z" fill="#FBB501"/>
<path id="Vector_2" d="M36.4269 2.9802C36.4269 1.49825 37.6314 0.296997 39.1174 0.296997H46.523C48.9919 0.296997 50.6186 1.19103 51.4043 2.9802C51.6337 3.50181 51.7489 4.06321 51.7489 4.63234C51.7489 5.66119 51.4276 6.54307 50.7849 7.27907C50.356 7.76974 49.7288 8.15763 48.9033 8.44275C50.1577 8.74334 51.0796 9.26053 51.6714 9.99211C52.2631 10.7248 52.5579 11.6442 52.5579 12.7527C52.5579 13.6555 52.3473 14.4667 51.9273 15.1872C51.5062 15.9078 50.9311 16.478 50.2009 16.8968C49.7488 17.1576 49.0662 17.3477 48.1531 17.4671C46.9386 17.6251 46.133 17.7047 45.7362 17.7047H39.1163C37.6303 17.7047 36.4258 16.5034 36.4258 15.0215V2.9802H36.4269ZM41.8678 7.12436H44.2137C45.0547 7.12436 45.6409 6.97959 45.9701 6.69115C46.2992 6.40272 46.4643 5.98499 46.4643 5.43796C46.4643 4.93182 46.2992 4.53509 45.9701 4.25107C45.6409 3.96596 45.0669 3.8234 44.2491 3.8234H41.8678V7.12436ZM41.8678 13.9639H44.6181C45.5468 13.9639 46.2017 13.7992 46.5829 13.471C46.964 13.1428 47.1546 12.7007 47.1546 12.1471C47.1546 11.6321 46.9663 11.2188 46.5895 10.906C46.2127 10.5933 45.5512 10.4375 44.6071 10.4375H41.8689V13.9639H41.8678Z" fill="#FBB501"/>
<path id="Vector_3" d="M54.4191 2.98032C54.4191 1.49837 55.6236 0.297119 57.1096 0.297119H64.5152C66.9841 0.297119 68.6108 1.19115 69.3965 2.98032C69.6259 3.50193 69.7411 4.06333 69.7411 4.63246C69.7411 5.66131 69.4198 6.54319 68.777 7.27919C68.3482 7.76986 67.721 8.15775 66.8955 8.44287C68.1498 8.74346 69.0718 9.26065 69.6635 9.99223C70.2553 10.7249 70.55 11.6444 70.55 12.7528C70.55 13.6557 70.3395 14.4668 69.9195 15.1873C69.4984 15.9079 68.9233 16.4781 68.1931 16.8969C67.7409 17.1578 67.0583 17.3478 66.1452 17.4672C64.9307 17.6252 64.1251 17.7048 63.7284 17.7048H57.1085C55.6225 17.7048 54.418 16.5035 54.418 15.0216V2.98032H54.4191ZM59.86 7.12448H62.2059C63.0469 7.12448 63.6331 6.97971 63.9622 6.69127C64.2914 6.40284 64.4565 5.98511 64.4565 5.43808C64.4565 4.93194 64.2914 4.53521 63.9622 4.2512C63.6331 3.96608 63.0591 3.82352 62.2413 3.82352H59.86V7.12448ZM59.86 13.964H62.6103C63.5389 13.964 64.1938 13.7993 64.575 13.4711C64.9562 13.1429 65.1468 12.7009 65.1468 12.1472C65.1468 11.6322 64.9584 11.2189 64.5817 10.9062C64.2049 10.5934 63.5434 10.4376 62.5993 10.4376H59.8611V13.964H59.86Z" fill="#FBB501"/>
<path id="Vector_4" d="M71.7168 9.01216C71.7168 6.17092 72.5102 3.9585 74.0982 2.37488C75.685 0.791257 77.8957 0 80.7303 0C83.5649 0 85.8731 0.777996 87.4455 2.33288C89.0168 3.88777 89.8025 6.06704 89.8025 8.8696C89.8025 10.9041 89.459 12.5728 88.7731 13.8746C88.086 15.1764 87.0942 16.1898 85.7966 16.9148C84.499 17.6386 82.8812 18.0011 80.9453 18.0011C79.0094 18.0011 77.3472 17.6884 76.0584 17.0629C74.7686 16.4374 73.7225 15.4483 72.9213 14.0945C72.119 12.7408 71.719 11.0467 71.719 9.01216H71.7168ZM77.11 9.03536C77.11 10.7925 77.438 12.0556 78.0918 12.8226C78.7467 13.5906 79.6377 13.9741 80.7646 13.9741C81.8916 13.9741 82.8202 13.5984 83.4552 12.8458C84.0901 12.0943 84.4082 10.7439 84.4082 8.79666C84.4082 7.15778 84.0768 5.96095 83.4142 5.20506C82.7515 4.44916 81.8528 4.07122 80.717 4.07122C79.5812 4.07122 78.7567 4.45469 78.0974 5.22274C77.438 5.99079 77.1089 7.26167 77.1089 9.03426L77.11 9.03536Z" fill="#FBB501"/>
</g>
<g id="Group_3">
<path id="Vector_5" d="M11.5719 0.297485C9.9651 0.297485 8.66305 1.59599 8.66305 3.19839V6.0993H5.81961V3.19839C5.81961 1.59599 4.51645 0.297485 2.91078 0.297485C1.30511 0.297485 0.00195312 1.59599 0.00195312 3.19839V14.8031C0.00195312 16.4055 1.30511 17.704 2.91078 17.704C4.51645 17.704 5.81961 16.4055 5.81961 14.8031V11.9022H8.66305V14.8031C8.66305 16.4055 9.96621 17.704 11.5719 17.704C13.1776 17.704 14.4807 16.4055 14.4807 14.8031V3.19839C14.4807 1.59599 13.1776 0.297485 11.5719 0.297485Z" fill="#FBB501"/>
<path id="Vector_6" d="M2.91078 6.0993H5.81961V3.19839C5.81961 1.59599 4.51645 0.297485 2.91078 0.297485C2.6404 0.297485 2.37999 0.337269 2.13177 0.405786C2.10296 0.413522 2.07415 0.419047 2.04644 0.427888C1.87136 0.482038 1.70292 0.55387 1.54335 0.638964C1.53781 0.642279 1.53116 0.644489 1.52452 0.647805C1.36051 0.737318 1.20538 0.841199 1.06243 0.95834C1.06243 0.95834 1.06132 0.95834 1.06021 0.959445C1.01035 1.00033 0.962697 1.04564 0.916156 1.09095C0.89621 1.10974 0.874047 1.12742 0.854101 1.14731C0.834155 1.16721 0.816425 1.18931 0.797586 1.2092C0.753261 1.25672 0.707828 1.30313 0.66572 1.35286C0.66572 1.35286 0.66572 1.35397 0.664612 1.35507C0.54715 1.49763 0.441879 1.65235 0.353229 1.8159C0.267903 1.97172 0.198091 2.13749 0.142685 2.30989C0.139361 2.31873 0.136036 2.32757 0.132712 2.33641C0.123847 2.36404 0.118306 2.39388 0.110549 2.4215C0.0418456 2.66905 0.00195312 2.92875 0.00195312 3.19839C0.00195312 4.8008 1.304 6.0993 2.91078 6.0993Z" fill="#FFD770"/>
<path id="Vector_7" d="M11.569 11.9006H8.66016V14.8015C8.66016 16.404 9.96331 17.7025 11.569 17.7025C11.8394 17.7025 12.0998 17.6627 12.348 17.5942C12.3768 17.5864 12.4056 17.5809 12.4333 17.572C12.6084 17.5179 12.7768 17.4461 12.9364 17.361C12.9419 17.3577 12.9486 17.3554 12.9552 17.3521C13.1192 17.2626 13.2744 17.1587 13.4173 17.0416C13.4173 17.0416 13.4184 17.0416 13.4196 17.0405C13.4694 16.9996 13.5171 16.9543 13.5636 16.909C13.5836 16.8902 13.6057 16.8725 13.6257 16.8526C13.6456 16.8327 13.6633 16.8106 13.6822 16.7907C13.7265 16.7432 13.7719 16.6968 13.814 16.6471C13.814 16.6471 13.814 16.646 13.8152 16.6449C13.9326 16.5023 14.0379 16.3476 14.1265 16.184C14.2119 16.0282 14.2817 15.8624 14.3371 15.69C14.3404 15.6812 14.3437 15.6724 14.347 15.6635C14.3559 15.6359 14.3615 15.6061 14.3692 15.5784C14.4379 15.3309 14.4778 15.0712 14.4778 14.8015C14.4778 13.1991 13.1758 11.9006 11.569 11.9006Z" fill="#FFD770"/>
</g>
</g>
<path id="Vector_8" d="M99.3729 17.9511C98.5152 17.9511 97.8558 17.7169 97.3937 17.2483C96.9317 16.7797 96.7012 16.1178 96.7012 15.2624V2.99903C96.7012 2.1271 96.9361 1.46072 97.4059 1.001C97.8758 0.540165 98.5396 0.310303 99.3972 0.310303H105.557C107.57 0.310303 109.124 0.833019 110.221 1.87735C111.318 2.92167 111.867 4.34947 111.867 6.15854C111.867 7.9676 111.318 9.3954 110.221 10.4397C109.124 11.4841 107.57 12.0068 105.557 12.0068H102.019V15.2635C102.019 16.1189 101.796 16.7808 101.351 17.2494C100.905 17.718 100.246 17.9522 99.3718 17.9522L99.3729 17.9511ZM102.02 7.95876H104.569C105.295 7.95876 105.851 7.81067 106.239 7.5145C106.627 7.21833 106.821 6.76634 106.821 6.15743C106.821 5.54852 106.627 5.07553 106.239 4.7882C105.851 4.50087 105.294 4.3561 104.569 4.3561H102.02V7.95876Z" fill="#FBB501"/>
<path id="Vector_9" d="M122.578 17.9999C120.781 17.9999 119.193 17.622 117.816 16.865C116.439 16.108 115.366 15.0515 114.599 13.6944C113.833 12.3373 113.449 10.7703 113.449 8.9944C113.449 7.21849 113.833 5.63045 114.599 4.28222C115.366 2.93398 116.438 1.88524 117.816 1.13597C119.193 0.387815 120.781 0.0131836 122.578 0.0131836C124.375 0.0131836 125.983 0.387815 127.353 1.13597C128.721 1.88413 129.79 2.93288 130.556 4.28222C131.323 5.63155 131.707 7.20191 131.707 8.9944C131.707 10.7869 131.323 12.3583 130.556 13.7066C129.79 15.0559 128.721 16.108 127.353 16.865C125.983 17.622 124.392 17.9999 122.578 17.9999ZM122.578 13.5839C123.699 13.5839 124.583 13.1772 125.225 12.3628C125.869 11.5483 126.19 10.4255 126.19 8.9955C126.19 7.56549 125.869 6.44602 125.225 5.64039C124.583 4.83477 123.699 4.43141 122.578 4.43141C121.457 4.43141 120.574 4.83035 119.931 5.62824C119.287 6.42613 118.965 7.54892 118.965 8.99661C118.965 10.4443 119.288 11.5715 119.931 12.3771C120.573 13.1828 121.455 13.5861 122.578 13.5861V13.5839Z" fill="#FBB501"/>
<path id="Vector_10" d="M140.335 17.9997C139.707 17.9997 139.039 17.9544 138.331 17.8637C137.622 17.7731 136.941 17.6505 136.29 17.4935C135.638 17.3377 135.057 17.1609 134.546 16.9631C134.018 16.7498 133.647 16.4415 133.433 16.0381C133.218 15.6347 133.136 15.2037 133.186 14.7429C133.236 14.2832 133.392 13.871 133.656 13.5096C133.92 13.1482 134.274 12.8974 134.72 12.757C135.165 12.6178 135.668 12.6631 136.229 12.893C136.806 13.1239 137.487 13.3129 138.27 13.461C139.054 13.6091 139.742 13.6831 140.336 13.6831C141.292 13.6831 141.944 13.5759 142.29 13.3626C142.637 13.1494 142.81 12.9018 142.81 12.6222C142.81 12.3592 142.69 12.1415 142.451 11.968C142.212 11.7956 141.771 11.6431 141.128 11.5116L138.158 10.8706C135.008 10.1965 133.433 8.52669 133.433 5.86227C133.433 4.67759 133.754 3.64984 134.398 2.77791C135.041 1.90598 135.94 1.22745 137.094 0.742304C138.249 0.257162 139.593 0.0140381 141.128 0.0140381C141.903 0.0140381 142.727 0.0969212 143.602 0.260477C144.477 0.425138 145.227 0.663842 145.854 0.976587C146.3 1.19098 146.625 1.49488 146.831 1.88941C147.038 2.28393 147.124 2.69503 147.091 3.12271C147.058 3.55038 146.921 3.93275 146.683 4.26981C146.444 4.60687 146.11 4.83784 145.681 4.9605C145.252 5.08427 144.733 5.03896 144.122 4.82457C143.71 4.67649 143.215 4.55714 142.637 4.46652C142.06 4.3759 141.532 4.33059 141.054 4.33059C140.245 4.33059 139.639 4.44552 139.235 4.67649C138.831 4.90746 138.629 5.21136 138.629 5.58931C138.629 5.8037 138.744 5.99599 138.975 6.16949C139.205 6.34189 139.651 6.49439 140.31 6.6259L143.28 7.26686C146.429 7.95756 148.005 9.59422 148.005 12.1769C148.005 13.345 147.687 14.3694 147.053 15.2491C146.418 16.1287 145.527 16.8073 144.381 17.2847C143.234 17.7621 141.887 18.0008 140.337 18.0008L140.335 17.9997Z" fill="#FBB501"/>
</g>
<defs>
<clipPath id="clip0_848_1219">
<rect width="148" height="18" fill="white"/>
</clipPath>
</defs>
</svg>
