<svg width="32" height="32" viewBox="0 0 32 32" fill="none" xmlns="http://www.w3.org/2000/svg">
<g id="play_circle_FILL0_wght400_GRAD-25_opsz24 (1) 1">
<path id="Vector" d="M14.2 20.8665L20.5833 16.7832C20.8722 16.5954 21.0167 16.3346 21.0167 16.0007C21.0167 15.6668 20.8722 15.4054 20.5833 15.2165L14.2 11.1332C13.8889 10.9332 13.5722 10.9193 13.25 11.0915C12.9278 11.2638 12.7667 11.5388 12.7667 11.9165V20.0832C12.7667 20.461 12.9278 20.736 13.25 20.9082C13.5722 21.0804 13.8889 21.0665 14.2 20.8665ZM16 28.9999C14.2021 28.9999 12.5125 28.6581 10.9312 27.9744C9.34986 27.2908 7.97433 26.363 6.8046 25.1911C5.63487 24.0192 4.70833 22.6434 4.025 21.0636C3.34167 19.4839 3 17.796 3 15.9999C3 14.2019 3.34181 12.5123 4.02543 10.931C4.70906 9.34973 5.63683 7.97421 6.80877 6.80448C7.9807 5.63474 9.35652 4.70821 10.9362 4.02488C12.516 3.34154 14.2039 2.99988 16 2.99988C17.7979 2.99988 19.4875 3.34169 21.0688 4.02531C22.6501 4.70893 24.0257 5.63671 25.1954 6.80864C26.3651 7.98058 27.2917 9.3564 27.975 10.9361C28.6583 12.5158 29 14.2038 29 15.9999C29 17.7978 28.6582 19.4874 27.9746 21.0687C27.2909 22.65 26.3632 24.0255 25.1912 25.1953C24.0193 26.365 22.6435 27.2915 21.0638 27.9749C19.484 28.6582 17.7961 28.9999 16 28.9999ZM16 26.4999C18.9222 26.4999 21.4028 25.4804 23.4417 23.4415C25.4806 21.4027 26.5 18.9221 26.5 15.9999C26.5 13.0777 25.4806 10.5971 23.4417 8.55821C21.4028 6.51932 18.9222 5.49988 16 5.49988C13.0778 5.49988 10.5972 6.51932 8.55833 8.55821C6.51944 10.5971 5.5 13.0777 5.5 15.9999C5.5 18.9221 6.51944 21.4027 8.55833 23.4415C10.5972 25.4804 13.0778 26.4999 16 26.4999Z" fill="white"/>
</g>
</svg>
