<svg width="14" height="14" viewBox="0 0 14 14" fill="none" xmlns="http://www.w3.org/2000/svg">
<path d="M6.01641 8.42132L4.46619 6.86277C4.35619 6.75834 4.22362 6.70612 4.06849 6.70612C3.91337 6.70612 3.77668 6.76421 3.65842 6.88039C3.5478 6.99368 3.49249 7.12774 3.49249 7.28257C3.49249 7.43739 3.54816 7.56637 3.65949 7.66949L5.63126 9.65792C5.73817 9.77121 5.86593 9.82786 6.01456 9.82786C6.16318 9.82786 6.29495 9.77121 6.40987 9.65792L10.3121 5.75177C10.4309 5.63558 10.4903 5.50059 10.4903 5.34679C10.4903 5.193 10.4309 5.0542 10.3121 4.93039C10.1903 4.82532 10.0491 4.77557 9.88842 4.78112C9.72775 4.78668 9.59457 4.84126 9.48889 4.94486L6.01641 8.42132ZM7.00099 13.6829C6.08501 13.6829 5.22018 13.5071 4.40649 13.1556C3.5928 12.804 2.88341 12.3251 2.27832 11.7189C1.67323 11.1127 1.19497 10.4037 0.84354 9.59192C0.492117 8.7801 0.316406 7.91665 0.316406 7.00157C0.316406 6.07448 0.49219 5.20409 0.843756 4.39041C1.19533 3.57672 1.67401 2.86864 2.27979 2.26619C2.88556 1.66374 3.59444 1.1876 4.40646 0.837755C5.21847 0.487911 6.08212 0.312988 6.99742 0.312988C7.92473 0.312988 8.79542 0.488538 9.60949 0.839638C10.4236 1.19074 11.1317 1.66723 11.7339 2.26911C12.3361 2.87099 12.812 3.57808 13.1617 4.39036C13.5115 5.20264 13.6863 6.07216 13.6863 6.99889C13.6863 7.91523 13.5113 8.78023 13.1614 9.59387C12.8114 10.4075 12.3346 11.1167 11.731 11.7215C11.1275 12.3263 10.4198 12.8044 9.60801 13.1558C8.79618 13.5072 7.92718 13.6829 7.00099 13.6829ZM6.99882 12.5891C8.54967 12.5891 9.86899 12.0434 10.9568 10.9521C12.0446 9.86078 12.5885 8.54358 12.5885 7.00051C12.5885 5.44966 12.0448 4.13033 10.9574 3.04252C9.86992 1.95472 8.55011 1.41082 6.99792 1.41082C5.45686 1.41082 4.14031 1.95454 3.04829 3.04197C1.95626 4.12941 1.41024 5.44922 1.41024 7.00141C1.41024 8.54247 1.9559 9.85902 3.04722 10.951C4.13855 12.0431 5.45575 12.5891 6.99882 12.5891Z" fill="#D68000"/>
</svg>
