<svg width="8" height="12" viewBox="0 0 8 12" fill="none" xmlns="http://www.w3.org/2000/svg">
<path id="Vector" d="M5.13181 5.97497L0.791858 1.63504C0.629725 1.47289 0.552825 1.28411 0.561158 1.06871C0.569491 0.853315 0.65445 0.660648 0.816033 0.490715C0.977633 0.320798 1.17238 0.23584 1.40028 0.23584C1.62818 0.23584 1.8271 0.316632 1.99703 0.478215L6.90353 5.38474C6.98652 5.47606 7.05074 5.56926 7.09621 5.66437C7.14167 5.75948 7.16441 5.86302 7.16441 5.97497C7.16441 6.08692 7.14152 6.19086 7.09576 6.28679C7.04997 6.38271 6.98523 6.4725 6.90153 6.55617L1.97403 11.4823C1.80277 11.6535 1.60735 11.7349 1.38778 11.7266C1.16822 11.7183 0.977633 11.6291 0.816033 11.4592C0.65445 11.2893 0.573658 11.0924 0.573658 10.8687C0.573658 10.645 0.654725 10.452 0.816858 10.2899L5.13181 5.97497Z" fill="black"/>
</svg>
