<svg xmlns="http://www.w3.org/2000/svg" width="20" height="20" viewBox="0 0 20 20" fill="none">
<path d="M8.77148 11.7768L6.83371 9.82859C6.69621 9.69805 6.53051 9.63277 6.33659 9.63277C6.14269 9.63277 5.97182 9.70539 5.82401 9.85061C5.68573 9.99222 5.61659 10.1598 5.61659 10.3533C5.61659 10.5469 5.68617 10.7081 5.82534 10.837L8.29005 13.3225C8.42369 13.4641 8.58339 13.5349 8.76917 13.5349C8.95495 13.5349 9.11967 13.4641 9.26332 13.3225L14.141 8.43984C14.2896 8.2946 14.3639 8.12586 14.3639 7.93361C14.3639 7.74137 14.2896 7.56787 14.141 7.41311C13.9889 7.28177 13.8124 7.21958 13.6115 7.22652C13.4107 7.23347 13.2442 7.30169 13.1121 7.43119L8.77148 11.7768ZM10.0022 18.3538C8.85724 18.3538 7.7762 18.134 6.75909 17.6946C5.74198 17.2551 4.85524 16.6565 4.09888 15.8988C3.34252 15.141 2.74469 14.2548 2.3054 13.24C1.86612 12.2252 1.64648 11.1459 1.64648 10.0021C1.64648 8.84323 1.86621 7.75524 2.30567 6.73813C2.74514 5.72102 3.34349 4.83593 4.10071 4.08286C4.85792 3.3298 5.74403 2.73462 6.75905 2.29732C7.77406 1.86001 8.85363 1.64136 9.99776 1.64136C11.1569 1.64136 12.2453 1.86079 13.2628 2.29967C14.2804 2.73854 15.1656 3.33416 15.9183 4.0865C16.6711 4.83886 17.266 5.72272 17.7032 6.73807C18.1403 7.75343 18.3589 8.84032 18.3589 9.99873C18.3589 11.1442 18.1402 12.2254 17.7027 13.2425C17.2652 14.2595 16.6692 15.146 15.9148 15.902C15.1603 16.6579 14.2757 17.2556 13.261 17.6949C12.2462 18.1341 11.1599 18.3538 10.0022 18.3538ZM9.99951 16.9865C11.9381 16.9865 13.5872 16.3044 14.947 14.9403C16.3067 13.5761 16.9866 11.9296 16.9866 10.0008C16.9866 8.0622 16.307 6.41304 14.9477 5.05327C13.5884 3.69352 11.9386 3.01365 9.99838 3.01365C8.07205 3.01365 6.42637 3.6933 5.06134 5.05259C3.6963 6.41188 3.01378 8.06164 3.01378 10.0019C3.01378 11.9282 3.69585 13.5739 5.06001 14.9389C6.42416 16.304 8.07066 16.9865 9.99951 16.9865Z" fill="#985B00"/>
</svg>