<svg width="24" height="24" viewBox="0 0 24 24" fill="none" xmlns="http://www.w3.org/2000/svg">
<g id="expand_more">
<path id="Vector" d="M12.0024 15.1332C11.8888 15.1332 11.7844 15.1125 11.6893 15.0712C11.5942 15.0299 11.5051 14.9636 11.4221 14.8723L6.51139 9.96154C6.34429 9.80277 6.26074 9.61361 6.26074 9.39404C6.26074 9.17447 6.3457 8.97972 6.51562 8.80979C6.67722 8.64821 6.87197 8.56741 7.09987 8.56741C7.32777 8.56741 7.52586 8.64738 7.69414 8.80731L11.9999 13.1256L16.3181 8.80731C16.478 8.64738 16.6678 8.56741 16.8874 8.56741C17.1069 8.56741 17.3017 8.64821 17.4716 8.80979C17.6332 8.97972 17.714 9.17864 17.714 9.40654C17.714 9.63444 17.6346 9.82777 17.4758 9.98654L12.5901 14.8723C12.4988 14.9636 12.4064 15.0299 12.313 15.0712C12.2195 15.1125 12.116 15.1332 12.0024 15.1332Z" fill="#FFFEFB"/>
</g>
</svg>
