<svg width="24" height="24" viewBox="0 0 24 24" fill="none" xmlns="http://www.w3.org/2000/svg">
<path d="M12.0033 15.1331C11.8897 15.1331 11.7854 15.1125 11.6902 15.0712C11.5951 15.0299 11.5061 14.9636 11.4231 14.8723L6.51237 9.96151C6.34527 9.80274 6.26172 9.61357 6.26172 9.39401C6.26172 9.17444 6.34668 8.97969 6.51659 8.80976C6.67819 8.64817 6.87294 8.56738 7.10084 8.56738C7.32874 8.56738 7.52684 8.64735 7.69512 8.80728L12.0008 13.1255L16.3191 8.80728C16.479 8.64735 16.6688 8.56738 16.8883 8.56738C17.1079 8.56738 17.3027 8.64817 17.4726 8.80976C17.6342 8.97969 17.715 9.17861 17.715 9.40651C17.715 9.63441 17.6356 9.82774 17.4768 9.98651L12.5911 14.8723C12.4998 14.9636 12.4074 15.0299 12.3139 15.0712C12.2205 15.1125 12.117 15.1331 12.0033 15.1331Z" fill="#472200"/>
</svg>
