<svg width="24" height="24" viewBox="0 0 24 24" fill="none" xmlns="http://www.w3.org/2000/svg">
<g id="expand_more">
<path id="Vector" d="M12.0024 15.1331C11.8888 15.1331 11.7844 15.1125 11.6893 15.0712C11.5942 15.0299 11.5051 14.9636 11.4221 14.8723L6.51139 9.96151C6.34429 9.80274 6.26074 9.61357 6.26074 9.39401C6.26074 9.17444 6.3457 8.97969 6.51562 8.80976C6.67722 8.64817 6.87197 8.56738 7.09987 8.56738C7.32777 8.56738 7.52586 8.64735 7.69414 8.80728L11.9999 13.1255L16.3181 8.80728C16.478 8.64735 16.6678 8.56738 16.8874 8.56738C17.1069 8.56738 17.3017 8.64817 17.4716 8.80976C17.6332 8.97969 17.714 9.17861 17.714 9.40651C17.714 9.63441 17.6346 9.82774 17.4758 9.98651L12.5901 14.8723C12.4988 14.9636 12.4064 15.0299 12.313 15.0712C12.2195 15.1125 12.116 15.1331 12.0024 15.1331Z" fill="#AD6500"/>
</g>
</svg>
