<svg xmlns="http://www.w3.org/2000/svg" width="188" height="24" fill="none" class="hidden md:inline-block"><g clip-path="url(#hubbopos-logo-yellow_svg__a)"><g fill="#FBB501"><path d="M39.342.97a3.4 3.4 0 0 1 3.4 3.4v9.744q0 1.962-.614 3.706a8.24 8.24 0 0 1-2.027 3.142q-1.248 1.206-2.61 1.709-1.988.736-4.772.736-1.61 0-3.514-.225-1.905-.226-3.182-.895-1.28-.669-2.341-1.902-1.061-1.234-1.453-2.543-.631-2.105-.631-3.73V4.37a3.4 3.4 0 1 1 6.802 0v10.057q0 1.805 1.001 2.82t2.776 1.015c1.184 0 2.094-.333 2.762-1q1-.998 1-2.835V4.37A3.4 3.4 0 0 1 39.34.97zM46.04 4.37a3.4 3.4 0 0 1 3.401-3.4h9.361q4.681-.001 6.17 3.4c.29.661.436 1.373.436 2.094q0 1.956-1.219 3.355-.812.932-2.378 1.475 2.378.571 3.499 1.963 1.121 1.394 1.12 3.5 0 1.716-.797 3.085a5.87 5.87 0 0 1-2.182 2.167q-.857.496-2.588.723-2.303.3-3.055.301H49.44a3.4 3.4 0 0 1-3.4-3.4zm6.878 5.253h2.965q1.595 0 2.22-.55.625-.547.625-1.588 0-.963-.625-1.504-.624-.542-2.175-.542h-3.01zm0 8.669h3.477q1.76-.001 2.483-.625.723-.625.723-1.678 0-.98-.715-1.573-.715-.594-2.506-.594h-3.46v4.47zM68.783 4.37a3.4 3.4 0 0 1 3.4-3.4h9.361q4.682-.001 6.17 3.4c.29.661.436 1.373.436 2.094q0 1.956-1.218 3.355-.814.932-2.379 1.475 2.378.571 3.5 1.963 1.12 1.394 1.12 3.5 0 1.716-.797 3.085a5.87 5.87 0 0 1-2.183 2.167q-.857.496-2.588.723-2.303.3-3.055.301h-8.368a3.4 3.4 0 0 1-3.4-3.4V4.37m6.877 5.253h2.965q1.597 0 2.22-.55.624-.547.625-1.588 0-.963-.624-1.504-.624-.542-2.176-.542h-3.01zm0 8.669h3.477q1.76-.001 2.483-.625.723-.625.723-1.678 0-.98-.715-1.573-.715-.594-2.505-.594H75.66v4.47M90.648 12.015q0-5.4 3.01-8.412 3.008-3.01 8.384-3.01c3.583 0 6.5.986 8.488 2.957q2.979 2.956 2.979 8.285 0 3.868-1.301 6.343a9.3 9.3 0 0 1-3.762 3.854q-2.46 1.376-6.132 1.377c-2.447 0-4.549-.397-6.178-1.19q-2.445-1.188-3.965-3.762t-1.52-6.442zm6.818.03q0 3.341 1.24 4.8 1.242 1.46 3.379 1.46c1.425 0 2.599-.477 3.401-1.43q1.205-1.43 1.205-5.133 0-3.115-1.257-4.552-1.255-1.437-3.409-1.437c-1.436 0-2.478.486-3.311 1.46q-1.25 1.46-1.25 4.83z"></path></g><path fill="#FBB501" d="M14.625.97a3.676 3.676 0 0 0-3.677 3.676v3.677H7.354V4.646a3.677 3.677 0 0 0-7.354 0v14.709a3.677 3.677 0 0 0 7.354 0v-3.677h3.594v3.677a3.677 3.677 0 0 0 7.354 0V4.646A3.677 3.677 0 0 0 14.625.97"></path><path fill="#FFD770" d="M3.677 8.323h3.677V4.646A3.677 3.677 0 0 0 3.677.97c-.342 0-.671.05-.985.138-.036.01-.073.016-.108.028-.221.068-.434.16-.636.267l-.023.011a4 4 0 0 0-.585.394l-.002.001q-.095.08-.182.167-.04.035-.079.071-.036.04-.071.079-.086.089-.167.182l-.001.003a3.7 3.7 0 0 0-.66 1.21l-.013.034-.028.108A3.7 3.7 0 0 0 0 4.646a3.676 3.676 0 0 0 3.677 3.677M14.622 15.676h-3.677v3.677a3.677 3.677 0 0 0 3.677 3.677c.342 0 .671-.05.985-.137q.055-.013.108-.028.332-.105.636-.268l.023-.01q.313-.171.585-.395h.002a3 3 0 0 0 .182-.168q.04-.034.079-.071.036-.039.071-.078.086-.09.167-.183l.001-.002a3.7 3.7 0 0 0 .66-1.21l.013-.034.028-.108a3.7 3.7 0 0 0 .137-.985 3.676 3.676 0 0 0-3.677-3.677"></path><path fill="#FBB501" d="M125.604 23.346q-1.626 0-2.502-.891t-.875-2.517V4.394q0-1.658.89-2.532.891-.876 2.517-.876h7.787q3.816 0 5.896 1.986 2.08 1.987 2.08 5.427t-2.08 5.426q-2.08 1.986-5.896 1.986h-4.472v4.128q0 1.626-.845 2.517t-2.502.891zm3.346-12.665h3.222q1.375 0 2.11-.564.736-.562.736-1.72c0-.771-.245-1.371-.736-1.735q-.736-.547-2.11-.548h-3.222zM154.937 23.408q-3.408 0-6.018-1.439a10.27 10.27 0 0 1-4.067-4.018q-1.454-2.58-1.454-5.958c0-2.25.485-4.263 1.454-5.972a10.2 10.2 0 0 1 4.067-3.988Q151.529.61 154.937.61c2.272 0 4.305.475 6.036 1.423q2.595 1.422 4.05 3.988 1.453 2.565 1.453 5.972 0 3.409-1.453 5.973a10.3 10.3 0 0 1-4.05 4.003q-2.596 1.44-6.036 1.439m0-5.598q2.127 0 3.347-1.547 1.22-1.55 1.22-4.268 0-2.72-1.22-4.253t-3.347-1.532q-2.125 0-3.346 1.517-1.22 1.516-1.22 4.27.001 2.752 1.22 4.284t3.346 1.532zM177.382 23.407q-1.19 0-2.533-.172a24 24 0 0 1-2.58-.47 17 17 0 0 1-2.204-.672q-1-.405-1.407-1.172a2.8 2.8 0 0 1-.312-1.642 3.2 3.2 0 0 1 .594-1.563 2.57 2.57 0 0 1 1.345-.954q.845-.264 1.907.172 1.095.44 2.58.72 1.486.282 2.611.282 1.814 0 2.471-.406.658-.406.657-.939 0-.5-.454-.829t-1.672-.578l-3.754-.813q-5.973-1.281-5.973-6.348 0-2.251 1.22-3.91 1.22-1.656 3.408-2.58 2.19-.921 5.099-.922 1.468 0 3.128.312 1.657.313 2.846.908.845.407 1.235 1.157t.328 1.563a2.86 2.86 0 0 1-.515 1.454q-.454.641-1.267.875-.813.236-1.97-.172-.782-.282-1.877-.454a13 13 0 0 0-2.002-.172q-1.534 0-2.299.438-.766.439-.766 1.157 0 .407.437.736.438.327 1.688.578l3.754.813q5.972 1.313 5.973 6.223 0 2.22-1.204 3.894-1.203 1.672-3.377 2.58t-5.112.908z"></path></g><defs><clipPath id="hubbopos-logo-yellow_svg__a"><path fill="#fff" d="M0 .593h187.077v22.815H0z"></path></clipPath></defs></svg>
