<svg width="24" height="24" viewBox="0 0 24 24" fill="none" xmlns="http://www.w3.org/2000/svg">
<g id="chevron_left">
<path id="Vector" d="M10.2681 11.9751L14.6089 16.3158C14.7705 16.4774 14.8471 16.6659 14.8388 16.8813C14.8305 17.0967 14.7455 17.2894 14.5839 17.4593C14.4223 17.6292 14.2276 17.7142 13.9997 17.7142C13.7718 17.7142 13.577 17.6292 13.4154 17.4593L8.50892 12.5528C8.41761 12.4698 8.3513 12.3808 8.31 12.2857C8.2687 12.1905 8.24805 12.087 8.24805 11.9751C8.24805 11.8631 8.2687 11.7596 8.31 11.6645C8.3513 11.5694 8.41761 11.4762 8.50892 11.3848L13.4404 6.45331C13.602 6.29173 13.7968 6.21094 14.0247 6.21094C14.2526 6.21094 14.4473 6.2959 14.6089 6.46581C14.7705 6.63575 14.8513 6.83258 14.8513 7.05631C14.8513 7.28005 14.7705 7.47271 14.6089 7.63431L10.2681 11.9751Z" fill="white"/>
</g>
</svg>
