<svg xmlns="http://www.w3.org/2000/svg" width="24" height="24" fill="currentColor" class="fill-icon-primary md:fill-icon-inverse"><path d="M3.908 18.112a.88.88 0 0 1-.644-.266.89.89 0 0 1-.265-.65q0-.373.265-.636a.88.88 0 0 1 .644-.263H20.1q.372 0 .638.266.267.267.268.638 0 .385-.268.648a.88.88 0 0 1-.638.263zm0-5.215a.88.88 0 0 1-.644-.266.88.88 0 0 1-.265-.646q0-.372.265-.635a.88.88 0 0 1 .644-.264H20.1q.372.001.638.266.267.267.268.638 0 .381-.268.644a.88.88 0 0 1-.638.263zm0-5.211a.88.88 0 0 1-.644-.266A.89.89 0 0 1 3 6.77q0-.372.265-.635a.88.88 0 0 1 .644-.263H20.1q.372 0 .638.266.267.266.268.638 0 .384-.268.647a.88.88 0 0 1-.638.263z"></path></svg>